<?xml version="1.0" encoding="iso-8859-1"?>
<!-- Generator: Adobe Illustrator 24.3.0, SVG Export Plug-In . SVG Version: 6.00 Build 0)  -->
<svg version="1.1" id="Capa_1" xmlns="http://www.w3.org/2000/svg" xmlns:xlink="http://www.w3.org/1999/xlink" x="0px" y="0px"
	 viewBox="0 0 431.076 796.859" style="enable-background:new 0 0 431.076 796.859;" xml:space="preserve">
<style type="text/css">
	.st0{fill:#84B978;}
	.st1{fill:#AE7BB3;}
	.st2{font-family: 'Roboto', 'Helvetica Neue', 'Helvetica', 'Arial', 'sans-serif';}
	.st3{font-size:8px;}
	.st4{fill:#6DB8DD;}
	.st5{fill:#D4BE5A;}
	.st6{font-size:9px;}
	.st7{font-size:7px;}
	.st8{fill:#C69080;}
	.st9{fill:#8C8C8C;}
</style>
<path class="st0" d="M351.035,127.332h-0.6c-4.548,0-8.236-3.687-8.236-8.236v0c0-4.548,3.687-8.236,8.236-8.236h0.6
	c4.548,0,8.236,3.687,8.236,8.236v0C359.27,123.645,355.583,127.332,351.035,127.332z"/>
<path class="st0" d="M299.33,147.471h-0.6c-4.548,0-8.236-3.687-8.236-8.236v0c0-4.548,3.687-8.236,8.236-8.236h0.6
	c4.548,0,8.236,3.687,8.236,8.236v0C307.566,143.784,303.879,147.471,299.33,147.471z"/>
<g><a href="https://drive.google.com/drive/folders/142Idso-HhBd_OcQmgAxkyyWug8G4MxNI?usp=sharing" target="_blank">
	<rect x="18.217" y="10.017" class="st1" width="76.968" height="16.471"/>
	<text transform="matrix(0.7876 0 0 1 21.4411 16.3843)"><tspan x="0" y="0" class="st2 st3">Tratados internacionales </tspan><tspan x="0" y="7" class="st2 st3"> y marco legal</tspan></text></a>
</g>
<g><a href="https://drive.google.com/drive/folders/1kR6bPCcMnYvUk69lEpGWoRyuG4hzQLkJ?usp=sharing" target="_blank">
	<rect x="18.217" y="36.941" class="st4" width="76.968" height="16.471"/>
	<text transform="matrix(0.73 0 0 1 21.7995 43.4468)" class="st2 st3">Estado de implementaci&#xF3;n </text>
	<text transform="matrix(0.7876 0 0 1 21.7995 50.4468)" class="st2 st3">de la ley 26.331</text></a>
</g>
<g><a href="https://drive.google.com/drive/folders/1prwNU6X3TAAK3sxlOqV1X7TlzTpm3Z3I?usp=sharing" target="_blank">
	<rect x="18.217" y="63.865" class="st5" width="75.909" height="16.471"/>
	<text transform="matrix(0.7876 0 0 1 21.7995 74.147)" class="st2 st6">Ecorregiones</text></a>
</g>
<g><a href="https://drive.google.com/drive/folders/1iXe_DWv06J926qdTYeX6QYozqAhATo3R?usp=sharing" target="_blank">
	<rect x="18.217" y="90.789" class="st0" width="64.122" height="16.471"/>
	<text transform="matrix(0.7876 0 0 1 22.8742 100.2994)" class="st2 st6">Bosques</text></a>
</g>
<g><a href="https://drive.google.com/drive/folders/1EaTVuABF1utdLiMQiXMVVPJfZa5h-2EB?usp=sharing" target="_blank">
	<rect x="244.299" y="112.178" class="st0" width="64.122" height="16.471"/>
	<text transform="matrix(0.7876 0 0 1 247.8811 122.4605)" class="st2 st3">Primer inventario</text></a>
</g>
<g><a href="https://drive.google.com/drive/folders/1DhWYonYPazVoqkOM8mNKgE9jj6Kldi8J?usp=sharing" target="_blank">
	<rect x="343.102" y="130.967" class="st0" width="54.73" height="16.471"/>
	<text transform="matrix(0.7876 0 0 1 346.6843 138.2491)"><tspan x="0" y="0" class="st2 st7">Regi&#xF3;n </tspan><tspan x="0" y="7" class="st2 st7">Monte</tspan></text></a>
</g>
<g>
	<rect x="343.102" y="149.908" class="st0" width="54.73" height="16.471"/>
<g><a href="https://drive.google.com/drive/folders/1ETYX5bhKpKhMB8KnQaSV5hompvPEmGE5?usp=sharing" target="_blank">
		<text transform="matrix(0.7876 0 0 1 346.6843 157.1909)"><tspan x="0" y="0" class="st2 st7">Regi&#xF3;n Bosque </tspan><tspan x="0" y="7" class="st2 st7">Andino Patag&#xF3;nico</tspan></text></a>
	</g>
</g>
<g>
	<rect x="343.102" y="168.85" class="st0" width="54.73" height="16.471"/>
<g><a href="https://drive.google.com/drive/folders/12YXLmIgskfVTFi_AvgwZ6d4eg-t2dzc0?usp=sharing" target="_blank">
		<text transform="matrix(0.7876 0 0 1 346.6843 176.1328)"><tspan x="0" y="0" class="st2 st7">Regi&#xF3;n </tspan><tspan x="0" y="7" class="st2 st7">Espinal</tspan></text></a>
	</g>
</g>
<g>
	<rect x="343.102" y="187.792" class="st0" width="54.73" height="16.471"/>
<g><a href="https://drive.google.com/drive/folders/1vyzgnIAWUs4X2Y-cSU6y6wDg2FywN9y_?usp=sharing" target="_blank">
		<text transform="matrix(0.7876 0 0 1 346.6843 195.0747)"><tspan x="0" y="0" class="st2 st7">Regi&#xF3;n </tspan><tspan x="0" y="7" class="st2 st7">Parque Chaque&#xF1;o</tspan></text></a>
	</g>
</g>
<g>
	<rect x="343.102" y="206.734" class="st0" width="54.73" height="16.471"/>
<g><a href="https://drive.google.com/drive/folders/1fIR0l9_8T4onnCshEGZ2MDypC0Kxniav?usp=sharing" target="_blank">
		<text transform="matrix(0.7876 0 0 1 346.6843 214.0167)"><tspan x="0" y="0" class="st2 st7">Regi&#xF3;n </tspan><tspan x="0" y="7" class="st2 st7">Selva Misionera</tspan></text></a>
	</g>
</g>
<g>
	<rect x="343.102" y="225.676" class="st0" width="54.73" height="16.471"/>
<g><a href="https://drive.google.com/drive/folders/1q22uyYTS2JGXDJazN41LTRQOVrqSESNC?usp=sharing" target="_blank">
		<text transform="matrix(0.7876 0 0 1 346.6843 232.9586)"><tspan x="0" y="0" class="st2 st7">Regi&#xF3;n Selva </tspan><tspan x="0" y="7" class="st2 st7">Tucumano Boliviana</tspan></text></a>
	</g>
</g>
<g>
	<text transform="matrix(0.7876 0 0 1 296.7478 141.4088)" class="st2 st6">8</text>
</g>
<path class="st0" d="M409.099,146.888h-0.6c-4.548,0-8.236-3.687-8.236-8.236v0c0-4.548,3.687-8.236,8.236-8.236h0.6
	c4.548,0,8.236,3.687,8.236,8.236v0C417.335,143.201,413.647,146.888,409.099,146.888z"/>
<g>
	<text transform="matrix(0.7876 0 0 1 406.6118 141.6324)" class="st2 st6">2</text>
</g>
<path class="st0" d="M181.07,107.542h-0.6c-4.548,0-8.236-3.687-8.236-8.236v0c0-4.548,3.687-8.236,8.236-8.236h0.6
	c4.548,0,8.236,3.687,8.236,8.236v0C189.305,103.855,185.618,107.542,181.07,107.542z"/>
<g>
	<text transform="matrix(0.7876 0 0 1 178.6465 101.5196)" class="st2 st6">2</text>
</g>
<path class="st0" d="M409.099,185.13h-0.6c-4.548,0-8.236-3.687-8.236-8.236v0c0-4.548,3.687-8.236,8.236-8.236h0.6
	c4.548,0,8.236,3.687,8.236,8.236v0C417.335,181.443,413.647,185.13,409.099,185.13z"/>
<g>
	<text transform="matrix(0.7876 0 0 1 406.6118 180.2585)" class="st2 st6">2</text>
</g>
<path class="st0" d="M409.099,204.252h-0.6c-4.548,0-8.236-3.687-8.236-8.236v0c0-4.548,3.687-8.236,8.236-8.236h0.6
	c4.548,0,8.236,3.687,8.236,8.236v0C417.335,200.565,413.647,204.252,409.099,204.252z"/>
<g>
	<text transform="matrix(0.7876 0 0 1 406.6118 198.4211)" class="st2 st6">2</text>
</g>
<path class="st0" d="M409.099,223.373h-0.6c-4.548,0-8.236-3.687-8.236-8.236v0c0-4.548,3.687-8.236,8.236-8.236h0.6
	c4.548,0,8.236,3.687,8.236,8.236v0C417.335,219.686,413.647,223.373,409.099,223.373z"/>
<g>
	<text transform="matrix(0.7876 0 0 1 406.6118 217.7342)" class="st2 st6">2</text>
</g>
<path class="st0" d="M409.099,242.495h-0.6c-4.548,0-8.236-3.687-8.236-8.236v0c0-4.548,3.687-8.236,8.236-8.236h0.6
	c4.548,0,8.236,3.687,8.236,8.236v0C417.335,238.807,413.647,242.495,409.099,242.495z"/>
<g>
	<text transform="matrix(0.7876 0 0 1 406.6118 236.2807)" class="st2 st6">2</text>
</g>
<path class="st0" d="M409.099,166.009h-0.6c-4.548,0-8.236-3.687-8.236-8.236v0c0-4.548,3.687-8.236,8.236-8.236h0.6
	c4.548,0,8.236,3.687,8.236,8.236v0C417.335,162.322,413.647,166.009,409.099,166.009z"/>
<g>
	<text transform="matrix(0.7876 0 0 1 406.6118 160.5621)" class="st2 st6">5</text>
</g>
<path class="st0" d="M320.164,233.736h-0.6c-4.548,0-8.236-3.687-8.236-8.236v0c0-4.548,3.687-8.236,8.236-8.236h0.6
	c4.548,0,8.236,3.687,8.236,8.236v0C328.399,230.049,324.712,233.736,320.164,233.736z"/>
<g>
	<text transform="matrix(0.7876 0 0 1 317.6765 228.2896)" class="st2 st6">5</text>
</g>
<path class="st0" d="M252.679,555.526h-0.6c-4.548,0-8.236-3.687-8.236-8.236l0,0c0-4.548,3.687-8.236,8.236-8.236h0.6
	c4.548,0,8.236,3.687,8.236,8.236l0,0C260.914,551.839,257.227,555.526,252.679,555.526z"/>
<path class="st0" d="M252.059,588.46h-0.6c-4.548,0-8.236-3.687-8.236-8.236v0c0-4.548,3.687-8.236,8.236-8.236h0.6
	c4.548,0,8.236,3.687,8.236,8.236v0C260.294,584.773,256.607,588.46,252.059,588.46z"/>
<path class="st0" d="M252.059,607.482h-0.6c-4.548,0-8.236-3.687-8.236-8.236l0,0c0-4.548,3.687-8.236,8.236-8.236h0.6
	c4.548,0,8.236,3.687,8.236,8.236l0,0C260.294,603.795,256.607,607.482,252.059,607.482z"/>
<g>
	<text transform="matrix(0.7876 0 0 1 248.2209 550.0789)" class="st2 st6">10</text>
</g>
<path class="st0" d="M252.679,534.053h-0.6c-4.548,0-8.236-3.687-8.236-8.236l0,0c0-4.548,3.687-8.236,8.236-8.236h0.6
	c4.548,0,8.236,3.687,8.236,8.236l0,0C260.914,530.366,257.227,534.053,252.679,534.053z"/>
<g>
	<text transform="matrix(0.7876 0 0 1 248.2209 528.6063)" class="st2 st6">18</text>
</g>
<path class="st0" d="M320.164,494.751h-0.6c-4.548,0-8.236-3.687-8.236-8.236l0,0c0-4.548,3.687-8.236,8.236-8.236h0.6
	c4.548,0,8.236,3.687,8.236,8.236l0,0C328.399,491.064,324.712,494.751,320.164,494.751z"/>
<g>
	<text transform="matrix(0.7876 0 0 1 315.7053 489.3045)" class="st2 st6">19</text>
</g>
<path class="st0" d="M320.164,513.54h-0.6c-4.548,0-8.236-3.687-8.236-8.236v0c0-4.548,3.687-8.236,8.236-8.236h0.6
	c4.548,0,8.236,3.687,8.236,8.236v0C328.399,509.852,324.712,513.54,320.164,513.54z"/>
<g>
	<text transform="matrix(0.7876 0 0 1 315.7053 508.0926)" class="st2 st6">17</text>
</g>
<g>
	<text transform="matrix(0.7876 0 0 1 348.4518 121.7574)" class="st2 st6">9</text>
</g>
<g><a href="https://drive.google.com/drive/folders/1qkq7KyEKlqqelEm-H_Nvf96FuH6tXhxe?usp=sharing" target="_blank">
	<rect x="244.49" y="216.94" class="st0" width="64.122" height="16.471"/>
	<text transform="matrix(0.83 0 0 1 249.1477 226.4507)" class="st2 st3">Segundo inventario</text></a>
</g>
<g><a href="https://drive.google.com/drive/folders/1fbYOVH5v2bYgT7vfOzpaIr-QvBi2z0sk?usp=sharing" target="_blank">
	<rect x="244.49" y="478.338" class="st0" width="64.122" height="16.471"/>
	<text transform="matrix(0.7876 0 0 1 248.1477 484.8494)"><tspan x="0" y="0" class="st2 st7">Anuarios </tspan><tspan x="0" y="7" class="st2 st7">de estad&#xED;stica forestal</tspan></text></a>
</g>
<path class="st0" d="M320.164,264.516h-0.6c-4.548,0-8.236-3.687-8.236-8.236l0,0c0-4.548,3.687-8.236,8.236-8.236h0.6
	c4.548,0,8.236,3.687,8.236,8.236l0,0C328.399,260.829,324.712,264.516,320.164,264.516z"/>
<g>
	<text transform="matrix(0.7876 0 0 1 315.7053 259.0692)" class="st2 st6">15</text>
</g>
<g><a href="https://drive.google.com/drive/folders/1rblHJjMYc1C7vjkrCQzn8KiojkCi2tTf?usp=sharing" target="_blank">
	<rect x="244.49" y="248.103" class="st0" width="64.122" height="16.471"/>
	<text transform="matrix(0.86 0 0 1 249.1477 257.6141)" class="st2 st7">2002</text></a>
</g>
<path class="st0" d="M320.164,285.692h-0.6c-4.548,0-8.236-3.687-8.236-8.236v0c0-4.548,3.687-8.236,8.236-8.236h0.6
	c4.548,0,8.236,3.687,8.236,8.236v0C328.399,282.005,324.712,285.692,320.164,285.692z"/>
<g>
	<text transform="matrix(0.7876 0 0 1 317.6765 280.2456)" class="st2 st6">4</text>
</g>
<g><a href="https://drive.google.com/drive/folders/1NsAvOA-nBVuWuYLFkXh0sXvqu9kYSpHY?usp=sharing" target="_blank">
	<rect x="244.49" y="269.279" class="st0" width="64.122" height="16.471"/>
	<text transform="matrix(0.86 0 0 1 249.1477 278.7906)" class="st2 st7">2004</text></a>
</g>
<path class="st0" d="M320.164,305.457h-0.6c-4.548,0-8.236-3.687-8.236-8.236v0c0-4.548,3.687-8.236,8.236-8.236h0.6
	c4.548,0,8.236,3.687,8.236,8.236v0C328.399,301.77,324.712,305.457,320.164,305.457z"/>
<g>
	<text transform="matrix(0.7876 0 0 1 317.6765 300.0103)" class="st2 st6">1</text>
</g>
<g><a href="https://drive.google.com/drive/folders/1GSf904_L_4tt7v-ST_6OctV6pw0TcGIb?usp=sharing" target="_blank">
	<rect x="244.49" y="289.044" class="st0" width="64.122" height="16.471"/>
	<text transform="matrix(0.86 0 0 1 249.1477 298.5553)" class="st2 st7">2006</text></a>
</g>
<path class="st0" d="M320.164,326.633h-0.6c-4.548,0-8.236-3.687-8.236-8.236l0,0c0-4.548,3.687-8.236,8.236-8.236h0.6
	c4.548,0,8.236,3.687,8.236,8.236l0,0C328.399,322.946,324.712,326.633,320.164,326.633z"/>
<g>
	<text transform="matrix(0.7876 0 0 1 317.6765 321.1868)" class="st2 st6">1</text>
</g>
<g><a href="https://drive.google.com/drive/folders/1Iccx5N7YZ2eMyjoeCFWp0AuvZOsv6I5j?usp=sharing" target="_blank">
	<rect x="244.49" y="310.221" class="st0" width="64.122" height="16.471"/>
	<text transform="matrix(0.86 0 0 1 249.1477 319.7318)" class="st2 st7">2006-2011</text></a>
</g>
<path class="st0" d="M320.164,347.104h-0.6c-4.548,0-8.236-3.687-8.236-8.236v0c0-4.548,3.687-8.236,8.236-8.236h0.6
	c4.548,0,8.236,3.687,8.236,8.236v0C328.399,343.417,324.712,347.104,320.164,347.104z"/>
<g>
	<text transform="matrix(0.7876 0 0 1 317.6765 341.6574)" class="st2 st6">1</text>
</g>
<g><a href="https://drive.google.com/drive/folders/1Cx5BHB04nu3dMxyJgC7Jrupo-k1q3PIa?usp=sharing" target="_blank">
	<rect x="244.49" y="330.691" class="st0" width="64.122" height="16.471"/>
	<text transform="matrix(0.86 0 0 1 249.1477 340.2023)" class="st2 st7">2011-2013</text></a>
</g>
<path class="st0" d="M320.164,368.281h-0.6c-4.548,0-8.236-3.687-8.236-8.236l0,0c0-4.548,3.687-8.236,8.236-8.236h0.6
	c4.548,0,8.236,3.687,8.236,8.236l0,0C328.399,364.593,324.712,368.281,320.164,368.281z"/>
<g>
	<text transform="matrix(0.7876 0 0 1 317.6765 362.8339)" class="st2 st6">1</text>
</g>
<g><a href="https://drive.google.com/drive/folders/1oeEGD5cjk_eGam5IkEP0e3EFHKuX8L2U?usp=sharing" target="_blank">
	<rect x="244.49" y="351.868" class="st0" width="64.122" height="16.471"/>
	<text transform="matrix(0.86 0 0 1 249.1477 361.3788)" class="st2 st7">2013-2014</text></a>
</g>
<path class="st0" d="M320.164,388.045h-0.6c-4.548,0-8.236-3.687-8.236-8.236l0,0c0-4.548,3.687-8.236,8.236-8.236h0.6
	c4.548,0,8.236,3.687,8.236,8.236l0,0C328.399,384.358,324.712,388.045,320.164,388.045z"/>
<g>
	<text transform="matrix(0.7876 0 0 1 317.6765 382.5986)" class="st2 st6">1</text>
</g>
<g><a href="https://drive.google.com/drive/folders/1WEu5zQgBQgdgBsF8YCva3KG07P9FLamK?usp=sharing" target="_blank">
	<rect x="244.49" y="371.632" class="st0" width="64.122" height="16.471"/>
	<text transform="matrix(0.86 0 0 1 249.1477 381.1435)" class="st2 st7">2014-2015</text></a>
</g>
<path class="st0" d="M320.164,409.222h-0.6c-4.548,0-8.236-3.687-8.236-8.236v0c0-4.548,3.687-8.236,8.236-8.236h0.6
	c4.548,0,8.236,3.687,8.236,8.236v0C328.399,405.535,324.712,409.222,320.164,409.222z"/>
<g>
	<text transform="matrix(0.7876 0 0 1 317.6765 403.7751)" class="st2 st6">1</text>
</g>
<g><a href="https://drive.google.com/drive/folders/1v5lhwxZl5EbZpyMZbXC7YyHWrvWl4fwk?usp=sharing" target="_blank">
	<rect x="244.49" y="392.809" class="st0" width="64.122" height="16.471"/>
	<text transform="matrix(0.86 0 0 1 249.1477 402.32)" class="st2 st7">2016</text></a>
</g>
<path class="st0" d="M320.164,428.986h-0.6c-4.548,0-8.236-3.687-8.236-8.236v0c0-4.548,3.687-8.236,8.236-8.236h0.6
	c4.548,0,8.236,3.687,8.236,8.236v0C328.399,425.299,324.712,428.986,320.164,428.986z"/>
<g>
	<text transform="matrix(0.7876 0 0 1 317.6765 423.5398)" class="st2 st6">2</text>
</g>
<g><a href="https://drive.google.com/drive/folders/1KH7-u9cNL307eOY9xG0X5NuvHQTbovxq?usp=sharing" target="_blank">
	<rect x="244.49" y="412.573" class="st0" width="64.122" height="16.471"/>
	<text transform="matrix(0.86 0 0 1 249.1477 422.0847)" class="st2 st7">2017</text></a>
</g>
<path class="st0" d="M320.164,448.751h-0.6c-4.548,0-8.236-3.687-8.236-8.236l0,0c0-4.548,3.687-8.236,8.236-8.236h0.6
	c4.548,0,8.236,3.687,8.236,8.236l0,0C328.399,445.064,324.712,448.751,320.164,448.751z"/>
<g>
	<text transform="matrix(0.7876 0 0 1 317.6765 443.3045)" class="st2 st6">3</text>
</g>
<g><a href="https://drive.google.com/drive/folders/1MlZPUZ_037GcHyFUAD4DoiC4QiKADQdi?usp=sharing" target="_blank">
	<rect x="244.49" y="432.338" class="st0" width="64.122" height="16.471"/>
	<text transform="matrix(0.86 0 0 1 249.1477 441.8494)" class="st2 st7">2018</text></a>
</g>
<path class="st0" d="M320.164,469.928h-0.6c-4.548,0-8.236-3.687-8.236-8.236v0c0-4.548,3.687-8.236,8.236-8.236h0.6
	c4.548,0,8.236,3.687,8.236,8.236v0C328.399,466.24,324.712,469.928,320.164,469.928z"/>
<g>
	<text transform="matrix(0.7876 0 0 1 317.6765 464.4809)" class="st2 st6">3</text>
</g>
<path class="st0" d="M178.073,631.81h-0.6c-4.548,0-8.236-3.687-8.236-8.236l0,0c0-4.548,3.687-8.236,8.236-8.236h0.6
	c4.548,0,8.236,3.687,8.236,8.236l0,0C186.309,628.123,182.622,631.81,178.073,631.81z"/>
<g>
	<text transform="matrix(0.7876 0 0 1 175.5858 626.3633)" class="st2 st6">2</text>
</g>
<path class="st0" d="M178.073,653.391h-0.6c-4.548,0-8.236-3.687-8.236-8.236l0,0c0-4.548,3.687-8.236,8.236-8.236h0.6
	c4.548,0,8.236,3.687,8.236,8.236l0,0C186.309,649.704,182.622,653.391,178.073,653.391z"/>
<g>
	<text transform="matrix(0.7876 0 0 1 175.5858 647.9441)" class="st2 st6">1</text>
</g>
<path class="st0" d="M178.073,674.972h-0.6c-4.548,0-8.236-3.687-8.236-8.236l0,0c0-4.548,3.687-8.236,8.236-8.236h0.6
	c4.548,0,8.236,3.687,8.236,8.236l0,0C186.309,671.284,182.622,674.972,178.073,674.972z"/>
<g>
	<text transform="matrix(0.7876 0 0 1 175.5858 669.5249)" class="st2 st6">1</text>
</g>
<path class="st0" d="M178.073,696.552h-0.6c-4.548,0-8.236-3.687-8.236-8.236l0,0c0-4.548,3.687-8.236,8.236-8.236h0.6
	c4.548,0,8.236,3.687,8.236,8.236l0,0C186.309,692.865,182.622,696.552,178.073,696.552z"/>
<g>
	<text transform="matrix(0.7876 0 0 1 175.5858 691.1057)" class="st2 st6">1</text>
</g>
<path class="st0" d="M178.073,718.133h-0.6c-4.548,0-8.236-3.687-8.236-8.236l0,0c0-4.548,3.687-8.236,8.236-8.236h0.6
	c4.548,0,8.236,3.687,8.236,8.236l0,0C186.309,714.446,182.622,718.133,178.073,718.133z"/>
<g>
	<text transform="matrix(0.7876 0 0 1 175.5858 712.6865)" class="st2 st6">3</text>
</g>
<path class="st0" d="M178.073,739.714h-0.6c-4.548,0-8.236-3.687-8.236-8.236l0,0c0-4.548,3.687-8.236,8.236-8.236h0.6
	c4.548,0,8.236,3.687,8.236,8.236l0,0C186.309,736.027,182.622,739.714,178.073,739.714z"/>
<g>
	<text transform="matrix(0.7876 0 0 1 175.5858 734.2673)" class="st2 st6">1</text>
</g>
<path class="st8" d="M93.87,761.714h-0.6c-4.548,0-8.236-3.687-8.236-8.236l0,0c0-4.548,3.687-8.236,8.236-8.236h0.6
	c4.548,0,8.236,3.687,8.236,8.236l0,0C102.105,758.027,98.418,761.714,93.87,761.714z"/>
<g>
	<text transform="matrix(0.7876 0 0 1 91.3824 756.2673)" class="st2 st6">1</text>
</g>
<g><a href="https://drive.google.com/drive/folders/1XBldGzsX4ztYtEstmzPpF2mJNDmaAUka?usp=sharing" target="_blank">
	<rect x="244.49" y="453.515" class="st0" width="64.122" height="16.471"/>
	<text transform="matrix(0.7876 0 0 1 249.1477 463.0258)" class="st2 st7">Monitoreo de Regiones</text></a>
</g>
<g><a href="https://drive.google.com/drive/folders/1dB2pztAyMYzFOxErPCzheoWzgi_E10jJ?usp=sharing" target="_blank">
	<rect x="244.49" y="497.127" class="st0" width="64.122" height="16.471"/>
	<text transform="matrix(0.7876 0 0 1 248.1477 504.6375)"><tspan x="0" y="0" class="st2 st7">Series </tspan><tspan x="0" y="7" class="st2 st7">estad&#xED;sticas forestales</tspan></text></a>
</g>
<g><a href="https://drive.google.com/drive/folders/14r_h1hADkQv3tLq0vwWxGbnudEO4Kiez?usp=sharing" target="_blank">
	<rect x="18.217" y="745.042" class="st8" width="64.122" height="16.471"/>
	<text transform="matrix(0.7876 0 0 1 22.1574 755.6008)" class="st2 st6">Carbono</text></a>
</g>
<g><a href="https://drive.google.com/drive/folders/1bBn_PPhVYlmW1ZKmcbFxxfcPHl5ULHdh?usp=sharing" target="_blank">
	<rect x="18.217" y="767.631" class="st9" width="64.122" height="16.471"/>
	<text transform="matrix(0.7876 0 0 1 22.1574 778.189)" class="st2 st3">Otras publicaciones</text></a>
</g>
<path class="st1" d="M108.163,26.872h-0.6c-4.548,0-8.236-3.687-8.236-8.236v0c0-4.548,3.687-8.236,8.236-8.236h0.6
	c4.548,0,8.236,3.687,8.236,8.236v0C116.399,23.185,112.712,26.872,108.163,26.872z"/>
<g>
	<text transform="matrix(0.7876 0 0 1 103.5942 20.9859)" class="st2 st6">11</text>
</g>
<path class="st4" d="M108.163,53.329h-0.6c-4.548,0-8.236-3.687-8.236-8.236v0c0-4.548,3.687-8.236,8.236-8.236h0.6
	c4.548,0,8.236,3.687,8.236,8.236v0C116.399,49.642,112.712,53.329,108.163,53.329z"/>
<text transform="matrix(0.7876 0 0 1 105.4443 47.2818)" class="st2 st6">5</text>
<path class="st5" d="M107.81,80.681h-0.6c-4.548,0-8.236-3.687-8.236-8.236v0c0-4.548,3.687-8.236,8.236-8.236h0.6
	c4.548,0,8.236,3.687,8.236,8.236v0C116.046,76.994,112.359,80.681,107.81,80.681z"/>
<g>
	<text transform="matrix(0.7876 0 0 1 105.0913 74.6905)" class="st2 st6">1</text>
</g>
<g><a href="https://drive.google.com/drive/folders/1Q7FkXDGVyasWo2MgcJkpIAEQtEycrOr0?usp=sharing" target="_blank">
	<rect x="171.572" y="571.715" class="st0" width="68.319" height="16.471"/>
	<text transform="matrix(0.84 0 0 1 175.1544 578.9971)"><tspan x="0" y="0" class="st2 st7">Niveles de referencias </tspan><tspan x="0" y="7" class="st2 st7">de emisiones forestales</tspan></text></a>
</g>
<g><a href="https://drive.google.com/drive/folders/1vZX113ROqnS1MFbIihRGg_Ysu5qXipMK?usp=sharing" target="_blank">
	<rect x="171.572" y="591.272" class="st0" width="68.319" height="16.471"/>
	<text transform="matrix(0.7876 0 0 1 175.1544 601.5547)" class="st2 st3">REDD+ Argentina</text></a>
</g>
<g>
	<text transform="matrix(0.7876 0 0 1 249.4547 601.6383)" class="st2 st6">1</text>
</g>
<path class="st0" d="M157.176,607.717h-0.6c-4.548,0-8.236-3.687-8.236-8.236l0,0c0-4.548,3.687-8.236,8.236-8.236h0.6
	c4.548,0,8.236,3.687,8.236,8.236l0,0C165.412,604.03,161.725,607.717,157.176,607.717z"/>
<g>
	<text transform="matrix(0.7876 0 0 1 154.5724 602.8148)" class="st2 st6">1</text>
</g>
<g>
	<text transform="matrix(0.7876 0 0 1 250.2135 582.6165)" class="st2 st6">2</text>
</g>
<g>
	<rect x="88.597" y="90.554" class="st0" width="81.176" height="16.471"/>
<g><a href="https://drive.google.com/drive/folders/12zJ467XrFl_erEc_fPliYkvsQ_4R-Bhx?usp=sharing" target="_blank">
		<text transform="matrix(0.7876 0 0 1 91.802 98.2994)"><tspan x="0" y="0" class="st2 st7">Estado de los bosques y  </tspan><tspan x="0" y="7" class="st2 st7">recursos forestales en el mundo</tspan></text></a>
	</g>
</g>
<g><a href="https://drive.google.com/drive/folders/1BWvFV9qhOJ24u6cdgiATs77yxnyDQNTB?usp=sharing" target="_blank">
	<rect x="89.145" y="112.507" class="st0" width="80.914" height="16.471"/>
	<text transform="matrix(0.7876 0 0 1 91.802 119.0171)"><tspan x="0" y="0" class="st2 st7">Estado de los bosques </tspan><tspan x="0" y="7" class="st2 st7">en Argentina</tspan></text></a>
</g>
<g><a href="https://drive.google.com/drive/folders/1Z2kTQwUQ2SKtZyF88NgMkzFKcbCIdhi4?usp=sharing" target="_blank">
	<g>
		<rect x="89.145" y="572.063" class="st0" width="76.393" height="16.471"/>
	</g>
	<text transform="matrix(0.7876 0 0 1 93.802 582.574)" class="st2 st3">REDD+</text></a>
</g>
<g><a href="https://drive.google.com/drive/folders/1lV2Z7AHrWC7qrmIDAwfiKBsVRbNoTSFz?usp=sharing" target="_blank">
	<rect x="89.145" y="614.793" class="st0" width="76.393" height="16.471"/>
	<text transform="matrix(0.7876 0 0 1 93.802 625.3046)" class="st2 st7">Bosques y Cambio Clim&#xE1;tico</text></a>
</g>
<g><a href="https://drive.google.com/drive/folders/1iUt51XNnjB-ue61TUFv1msW6HYC3dwyI?usp=sharing" target="_blank">
	<rect x="89.145" y="636.511" class="st0" width="76.393" height="16.471"/>
	<text transform="matrix(0.81 0 0 1 92.802 646.0214)" class="st2 st7">Impactos de la deforestaci&#xF3;n</text></a>
</g>
<g><a href="https://drive.google.com/drive/folders/1QpCbtgVgriM9emRhBKUtC2SXYBrShDUa?usp=sharing" target="_blank">
	<rect x="89.145" y="658.229" class="st0" width="76.393" height="16.471"/>
	<text transform="matrix(0.7876 0 0 1 93.802 667.7402)" class="st2 st3">Bosques y polinizadores</text></a>
</g>
<g><a href="https://drive.google.com/drive/folders/12T0c1b9r3TMekhjqO_PNDdY-8SvaoZsq?usp=sharing" target="_blank">
	<rect x="89.145" y="679.946" class="st0" width="76.393" height="16.471"/>
	<text transform="matrix(0.7876 0 0 1 93.802 689.457)" class="st2 st7">Bosques y la salud humana</text></a>
</g>
<g><a href="https://drive.google.com/drive/folders/19oUMrL3z809EB49-jxjxZ7QtPrrBtV9x?usp=sharing" target="_blank">
	<rect x="89.145" y="701.664" class="st0" width="76.393" height="16.471"/>
	<text transform="matrix(0.7876 0 0 1 93.802 711.1757)" class="st2 st3">Bosques y ganader&#xED;a</text></a>
</g>
<g><a href="https://drive.google.com/drive/folders/17xDTzJQo6TyJEZTYKoA-tllbl5PxbUEu?usp=sharing" target="_blank">
	<rect x="172.78" y="112.333" class="st0" width="66.705" height="16.471"/>
	<text transform="matrix(0.7876 0 0 1 177.8401 119.8443)"><tspan x="0" y="0" class="st2 st7">Inventario Nacional </tspan><tspan x="0" y="7" class="st2 st7">de Bosques Nativos</tspan></text></a>
</g>
<g><a href="https://drive.google.com/drive/folders/1XDhVn2jBf_hI4Bnp_aX8B42q5OoFN_Jn?usp=sharing" target="_blank">
	<rect x="172.668" y="247.74" class="st0" width="66.705" height="16.471"/>
	<text transform="matrix(0.7876 0 0 1 177.6482 255.2505)"><tspan x="0" y="0" class="st2 st7">Monitoreo de superficies </tspan><tspan x="0" y="7" class="st2 st7">de bosques nativos</tspan></text></a>
</g>
<g><a href="https://drive.google.com/drive/folders/1xRwMa9xkE6w6f0Ezy8rzZxODmJzaEfQi?usp=sharing" target="_blank">
	<rect x="172.668" y="478.517" class="st0" width="66.705" height="16.471"/>
	<text transform="matrix(0.7876 0 0 1 177.6482 488.0281)" class="st2 st3">Estad&#xED;stica forestal</text></a>
</g>
<g><a href="https://drive.google.com/drive/folders/1Zb3ZWAOYBmA2UTPhfrcLsDIvjvs_NyDW?usp=sharing" target="_blank">
	<rect x="172.668" y="516.531" class="st0" width="66.705" height="16.471"/>
	<text transform="matrix(0.7876 0 0 1 177.6482 526.0428)" class="st2 st3">Incendios</text></a>
</g>
<g><a href="https://drive.google.com/drive/folders/1eOm63wJdQcvpU3xcpxlNKqad-vrVBufF?usp=sharing" target="_blank">
	<rect x="172.668" y="538.249" class="st0" width="66.705" height="16.471"/>
	<text transform="matrix(0.7876 0 0 1 177.6482 547.7596)" class="st2 st3">Comercio exterior</text></a>
</g>
<g><a href="https://drive.google.com/drive/folders/1QjKW8EELmamC_xQU4VknO8HoXuak9sn-?usp=sharing" target="_blank">
	<rect x="89.145" y="723.243" class="st0" width="76.393" height="16.471"/>
	<text transform="matrix(0.7876 0 0 1 93.802 732.7542)" class="st2 st3">Productos forestales</text></a>
</g>
<rect x="243.686" y="112.178" class="st0" width="1.955" height="121.143"/>
<rect x="312.686" y="112.178" class="st0" width="1.969" height="35.502"/>
<rect x="243.863" y="478.346" class="st0" width="2.548" height="35.269"/>
<rect x="170.098" y="571.675" class="st0" width="2.548" height="35.822"/>
<rect x="243.714" y="248.165" class="st0" width="2" height="221.751"/>
<rect x="172.832" y="112.395" class="st0" width="2.211" height="440.462"/>
<rect x="87.787" y="90.536" class="st0" width="2.494" height="649.125"/>
<rect x="342.664" y="131.019" class="st0" width="1.638" height="111.196"/>
<g><a href="https://drive.google.com/drive/folders/1qpsGE6xic4Mbht4W7H7FiX55zZo2xlF1?usp=sharing" target="_blank">
	<rect x="314.084" y="112.178" class="st0" width="25.865" height="16.471"/>
	<text transform="matrix(0.7876 0 0 1 314.6672 122.4605)" class="st2 st7">Manuales</text></a>
</g>
<g><a href="https://drive.google.com/drive/folders/1OYyoeJaVs2vvZ2w9Vce99TdYiLbHWreH?usp=sharing" target="_blank">
	<rect x="314.084" y="131.35" class="st0" width="25.865" height="16.471"/>
	<text transform="matrix(0.81 0 0 1 314.6672 141.6324)" class="st2 st3">Mapas</text></a>
</g>
</svg>
